<svg width="227" height="227" viewBox="0 0 227 227" fill="none" xmlns="http://www.w3.org/2000/svg">
<path d="M100.733 213.686C101.201 213.746 101.635 213.882 102.035 214.094C102.435 214.315 102.775 214.616 103.057 214.999C103.338 215.39 103.539 215.863 103.662 216.419C103.784 216.975 103.798 217.622 103.704 218.36L103.673 218.598C103.582 219.312 103.408 219.915 103.152 220.407C102.896 220.898 102.583 221.29 102.215 221.581C101.847 221.873 101.443 222.071 101.002 222.176C100.56 222.289 100.105 222.316 99.6371 222.256C99.1847 222.198 98.7797 222.086 98.422 221.919C98.0563 221.751 97.7448 221.538 97.4875 221.279C97.2303 221.021 97.0351 220.718 96.9021 220.37C96.7612 220.021 96.6933 219.638 96.6985 219.219L97.8888 219.371C97.9309 219.925 98.1132 220.359 98.4358 220.675C98.7584 220.99 99.2015 221.184 99.7649 221.256C100.058 221.294 100.351 221.275 100.643 221.199C100.935 221.123 101.208 220.977 101.462 220.759C101.706 220.549 101.921 220.253 102.107 219.874C102.285 219.493 102.41 219.017 102.483 218.446L102.514 218.208C102.591 217.605 102.584 217.088 102.494 216.657C102.403 216.234 102.263 215.881 102.073 215.599C101.883 215.317 101.656 215.102 101.393 214.956C101.129 214.809 100.867 214.719 100.605 214.686C99.9859 214.606 99.4825 214.695 99.0948 214.952C98.7071 215.209 98.4471 215.571 98.3148 216.038L97.1245 215.886C97.2468 215.434 97.4245 215.053 97.6576 214.744C97.8896 214.443 98.1662 214.204 98.4872 214.028C98.8002 213.85 99.1498 213.733 99.536 213.678C99.9132 213.629 100.312 213.632 100.733 213.686Z" fill="white"/>
<path d="M88.0542 220.093L86.9649 219.8L87.9019 216.312L86.9747 216.063L82.8623 218.698L81.5643 218.35L86.1503 215.431L83.6274 210.206L85.0181 210.58L87.2175 215.159L88.1447 215.408L89.1439 211.688L90.2333 211.98L88.0542 220.093Z" fill="white"/>
<path d="M73.916 215.707L71.2554 214.605C70.7455 214.393 70.3265 214.15 69.9986 213.876C69.6707 213.601 69.4292 213.307 69.2741 212.991C69.1086 212.68 69.028 212.352 69.0322 212.008C69.0334 211.67 69.106 211.328 69.2499 210.981C69.3938 210.633 69.5862 210.336 69.8269 210.09C70.0646 209.851 70.3535 209.676 70.6936 209.566C71.0232 209.46 71.401 209.426 71.8269 209.464C72.2529 209.502 72.7208 209.626 73.2308 209.838L74.8493 210.508L76.0896 207.515L77.1317 207.947L73.916 215.707ZM72.9095 210.77C72.54 210.616 72.2158 210.521 71.9369 210.484C71.6476 210.45 71.3994 210.464 71.1921 210.526C70.9774 210.584 70.7986 210.692 70.6555 210.849C70.505 211.003 70.3838 211.191 70.292 211.413C70.2001 211.634 70.1528 211.853 70.1502 212.068C70.1401 212.281 70.1904 212.483 70.3009 212.676C70.404 212.866 70.5712 213.048 70.8023 213.222C71.0229 213.4 71.318 213.565 71.6875 213.718L73.2507 214.366L74.4726 211.417L72.9095 210.77Z" fill="white"/>
<path d="M62.8143 200.963C63.23 201.203 63.592 201.504 63.9001 201.866C64.2042 202.236 64.4192 202.655 64.5453 203.125C64.6714 203.595 64.6906 204.114 64.6029 204.682C64.5152 205.25 64.2835 205.86 63.9077 206.512L63.7877 206.72C63.4279 207.343 63.028 207.828 62.588 208.175C62.148 208.521 61.695 208.754 61.2292 208.873C60.7593 208.999 60.2903 209.02 59.8223 208.934C59.3543 208.849 58.9124 208.686 58.4967 208.447C58.0809 208.207 57.719 207.906 57.4109 207.543C57.1028 207.181 56.8857 206.764 56.7596 206.295C56.6296 205.832 56.6044 205.323 56.6841 204.769C56.7638 204.214 56.9835 203.625 57.3433 203.002L57.4632 202.794C57.839 202.142 58.2509 201.637 58.6989 201.276C59.147 200.916 59.6059 200.673 60.0758 200.547C60.5457 200.421 61.0166 200.397 61.4886 200.475C61.9566 200.56 62.3985 200.723 62.8143 200.963ZM62.3105 201.836C62.0264 201.672 61.7227 201.566 61.3994 201.518C61.0762 201.47 60.7501 201.499 60.4212 201.605C60.0883 201.718 59.761 201.917 59.4393 202.202C59.1067 202.49 58.7945 202.888 58.5027 203.393L58.3827 203.601C58.1069 204.079 57.9334 204.524 57.8622 204.936C57.7801 205.35 57.7776 205.723 57.8546 206.054C57.9277 206.391 58.0658 206.688 58.2692 206.944C58.4726 207.2 58.7163 207.41 59.0004 207.573C59.2845 207.737 59.5882 207.843 59.9115 207.891C60.2348 207.939 60.5609 207.91 60.8897 207.805C61.2146 207.706 61.5394 207.519 61.864 207.244C62.1777 206.973 62.4725 206.598 62.7483 206.12L62.8682 205.912C63.1601 205.406 63.351 204.939 63.4411 204.511C63.5203 204.085 63.5253 203.7 63.4563 203.356C63.3833 203.018 63.2451 202.721 63.0417 202.466C62.8384 202.21 62.5947 202 62.3105 201.836Z" fill="white"/>
<path d="M54.4429 195.663C54.5378 195.737 54.6253 195.82 54.7055 195.912L54.0299 196.785C54.0032 196.755 53.9582 196.715 53.8949 196.666C53.7684 196.568 53.643 196.501 53.5187 196.466C53.3832 196.432 53.239 196.441 53.0862 196.495C52.9221 196.55 52.7365 196.659 52.5292 196.823C52.3156 196.981 52.0706 197.206 51.7942 197.498C51.5128 197.796 51.1896 198.168 50.8245 198.614C50.4593 199.06 50.0344 199.596 49.5497 200.222L48.3748 201.741L43.9142 198.289L49.0547 191.646L49.9468 192.336L45.4085 198.201L48.0848 200.272L48.8045 199.342C49.3479 198.64 49.8386 198.038 50.2766 197.538C50.7097 197.043 51.1023 196.634 51.4544 196.31C51.8065 195.985 52.123 195.74 52.404 195.573C52.6849 195.406 52.9457 195.304 53.1863 195.268C53.4156 195.233 53.6321 195.254 53.8358 195.33C54.0444 195.401 54.2467 195.512 54.4429 195.663Z" fill="white"/>
<path d="M43.8725 186.971C43.9566 187.056 44.0322 187.15 44.0992 187.252L43.312 188.027C43.2897 187.992 43.2505 187.947 43.1944 187.89C43.0822 187.776 42.9669 187.693 42.8486 187.641C42.7189 187.589 42.5747 187.579 42.416 187.612C42.2461 187.644 42.0474 187.727 41.82 187.861C41.5869 187.989 41.3138 188.179 41.0006 188.431C40.6816 188.689 40.3112 189.014 39.8892 189.406C39.4673 189.799 38.974 190.273 38.4093 190.828L37.0403 192.174L33.0858 188.153L39.0753 182.263L39.8661 183.067L34.5783 188.267L36.951 190.68L37.7895 189.855C38.4227 189.233 38.99 188.703 39.4915 188.266C39.9873 187.835 40.4315 187.482 40.8242 187.208C41.2168 186.934 41.5636 186.733 41.8645 186.606C42.1654 186.478 42.4374 186.413 42.6807 186.409C42.9127 186.405 43.1244 186.455 43.3159 186.559C43.5131 186.656 43.6986 186.794 43.8725 186.971Z" fill="white"/>
<path d="M27.3025 170.233C27.4128 170.4 27.4864 170.576 27.5233 170.763C27.5535 170.954 27.5505 171.138 27.5143 171.315C27.478 171.493 27.4085 171.663 27.3058 171.827C27.1986 171.984 27.0616 172.118 26.8947 172.228C26.7278 172.338 26.5511 172.412 26.3646 172.449C26.1736 172.479 25.9895 172.476 25.8121 172.44C25.6348 172.404 25.4675 172.332 25.3105 172.225C25.1467 172.122 25.0097 171.987 24.8995 171.82C24.7892 171.653 24.719 171.474 24.6887 171.283C24.6518 171.097 24.6515 170.915 24.6877 170.738C24.724 170.56 24.7957 170.393 24.9029 170.236C25.0056 170.072 25.1404 169.935 25.3073 169.825C25.4742 169.715 25.6531 169.645 25.8441 169.614C26.0306 169.577 26.2125 169.577 26.3899 169.613C26.5673 169.65 26.7378 169.719 26.9016 169.822C27.0586 169.929 27.1923 170.066 27.3025 170.233Z" fill="white"/>
<path d="M19.8529 152.029C20.0326 152.466 20.1291 152.911 20.1426 153.364C20.1486 153.82 20.055 154.265 19.8618 154.699C19.6612 155.136 19.3496 155.546 18.927 155.927C18.5045 156.309 17.9492 156.641 17.2612 156.925L17.0393 157.016C16.3735 157.29 15.7636 157.437 15.2097 157.458C14.6558 157.478 14.161 157.401 13.7254 157.225C13.2899 157.05 12.9174 156.797 12.6081 156.465C12.2913 156.137 12.0431 155.755 11.8634 155.319C11.6898 154.897 11.5869 154.489 11.5548 154.096C11.5196 153.695 11.5507 153.319 11.6482 152.967C11.7457 152.616 11.9126 152.296 12.1489 152.009C12.3822 151.714 12.682 151.465 13.0484 151.262L13.5052 152.372C13.0448 152.682 12.7574 153.056 12.6429 153.492C12.5284 153.929 12.5793 154.41 12.7955 154.935C12.9082 155.209 13.0696 155.454 13.2798 155.67C13.4899 155.886 13.7523 156.051 14.0669 156.163C14.3711 156.272 14.734 156.313 15.1556 156.286C15.5742 156.252 16.0498 156.126 16.5825 155.906L16.8044 155.815C17.3666 155.584 17.8127 155.322 18.1425 155.031C18.465 154.742 18.702 154.446 18.8534 154.141C19.0049 153.836 19.0791 153.533 19.0761 153.232C19.073 152.93 19.0213 152.657 18.9208 152.413C18.6832 151.836 18.3569 151.443 17.9418 151.233C17.5267 151.023 17.0835 150.976 16.6122 151.093L16.1554 149.983C16.6089 149.865 17.0275 149.832 17.4113 149.881C17.7877 149.934 18.1321 150.056 18.4445 150.247C18.7538 150.432 19.0282 150.678 19.2675 150.986C19.4964 151.289 19.6915 151.637 19.8529 152.029Z" fill="white"/>
<path d="M8.01141 144.183L7.72659 143.091L11.2215 142.179L10.9791 141.25L6.65397 138.981L6.31461 137.681L11.1199 140.222L14.4121 135.443L14.7757 136.837L11.8848 141.014L12.1272 141.943L15.8544 140.97L16.1392 142.062L8.01141 144.183Z" fill="white"/>
<path d="M4.82541 129.727L4.46684 126.869C4.39811 126.322 4.40185 125.837 4.47806 125.417C4.55426 124.996 4.69103 124.64 4.88835 124.349C5.07674 124.051 5.32173 123.819 5.6233 123.652C5.91694 123.486 6.25029 123.38 6.62337 123.333C6.99644 123.286 7.3497 123.307 7.68315 123.394C8.00866 123.482 8.30344 123.646 8.5675 123.887C8.82263 124.122 9.03909 124.433 9.21689 124.822C9.3947 125.211 9.51796 125.679 9.58669 126.227L9.80482 127.965L13.0196 127.562L13.1601 128.681L4.82541 129.727ZM8.61781 126.409C8.56801 126.012 8.49046 125.683 8.38515 125.422C8.27091 125.154 8.13587 124.945 7.98001 124.796C7.82315 124.638 7.64102 124.536 7.43361 124.489C7.22521 124.435 7.00194 124.423 6.76381 124.452C6.52567 124.482 6.31237 124.549 6.12388 124.654C5.9344 124.75 5.78315 124.894 5.67012 125.086C5.5561 125.269 5.48079 125.504 5.44422 125.791C5.3987 126.071 5.40085 126.409 5.45065 126.806L5.66131 128.485L8.82848 128.088L8.61781 126.409Z" fill="white"/>
<path d="M12.1447 112.783C12.142 113.263 12.0594 113.727 11.8969 114.174C11.7264 114.621 11.4682 115.015 11.1222 115.358C10.7763 115.7 10.3348 115.973 9.79763 116.178C9.26047 116.383 8.6159 116.484 7.86391 116.479L7.62391 116.478C6.90393 116.474 6.28452 116.366 5.76569 116.156C5.24687 115.945 4.82042 115.666 4.48635 115.32C4.14428 114.974 3.89451 114.577 3.73702 114.128C3.57953 113.679 3.50213 113.215 3.50482 112.735C3.50751 112.255 3.59011 111.791 3.75262 111.344C3.91513 110.897 4.16934 110.503 4.51527 110.16C4.85319 109.818 5.28273 109.545 5.80388 109.34C6.32504 109.135 6.94562 109.034 7.6656 109.038L7.9056 109.039C8.65759 109.044 9.301 109.151 9.83582 109.362C10.3706 109.573 10.8091 109.852 11.1512 110.198C11.4932 110.544 11.747 110.941 11.9125 111.39C12.07 111.839 12.1474 112.303 12.1447 112.783ZM11.1367 112.778C11.1385 112.45 11.0803 112.133 10.962 111.829C10.8437 111.524 10.6572 111.255 10.4025 111.021C10.1398 110.788 9.80487 110.602 9.39764 110.464C8.98246 110.317 8.48287 110.243 7.89888 110.239L7.65888 110.238C7.10689 110.235 6.63449 110.304 6.24169 110.446C5.84094 110.58 5.51591 110.762 5.26661 110.993C5.00932 111.223 4.81982 111.49 4.69812 111.794C4.57642 112.097 4.51465 112.412 4.51281 112.74C4.51097 113.068 4.5692 113.385 4.68749 113.689C4.80579 113.994 4.99228 114.263 5.24698 114.497C5.49368 114.73 5.81662 114.92 6.2158 115.066C6.60704 115.204 7.07865 115.275 7.63064 115.278L7.87063 115.279C8.45463 115.283 8.955 115.217 9.37175 115.084C9.78056 114.942 10.1176 114.756 10.3829 114.525C10.6402 114.295 10.8297 114.028 10.9514 113.725C11.0731 113.421 11.1349 113.106 11.1367 112.778Z" fill="white"/>
<path d="M12.6068 102.886C12.5899 103.005 12.5612 103.122 12.5206 103.237L11.4275 103.082C11.4411 103.044 11.4534 102.985 11.4647 102.906C11.4871 102.748 11.483 102.606 11.4524 102.48C11.4149 102.345 11.335 102.225 11.2127 102.119C11.0836 102.003 10.8968 101.896 10.6523 101.797C10.409 101.69 10.0921 101.588 9.70167 101.492C9.30333 101.396 8.82013 101.299 8.25209 101.202C7.68404 101.105 7.00794 101.001 6.22378 100.89L4.3228 100.621L5.11466 95.0364L13.4315 96.2158L13.2731 97.3326L5.93054 96.2914L5.45543 99.6419L6.61978 99.807C7.49898 99.9317 8.26449 100.06 8.91629 100.193C9.56018 100.325 10.1102 100.464 10.5663 100.609C11.0224 100.755 11.3925 100.908 11.6766 101.07C11.9608 101.231 12.1782 101.407 12.3288 101.598C12.4727 101.78 12.5617 101.979 12.5959 102.194C12.638 102.41 12.6416 102.641 12.6068 102.886Z" fill="white"/>
<path d="M14.9297 89.3988C14.897 89.5143 14.8527 89.6265 14.7969 89.7354L13.7347 89.4344C13.7533 89.3981 13.7735 89.3414 13.7953 89.2645C13.839 89.1105 13.854 88.9693 13.8406 88.8408C13.8216 88.7023 13.7587 88.5723 13.6518 88.4505C13.5394 88.3189 13.3688 88.1874 13.14 88.056C12.9133 87.917 12.613 87.7737 12.239 87.6261C11.8574 87.4764 11.3917 87.3153 10.8419 87.1429C10.292 86.9705 9.63614 86.7763 8.87414 86.5604L7.02687 86.0369L8.56454 80.6105L16.6463 82.9007L16.3388 83.986L9.20373 81.9641L8.28113 85.2199L9.41258 85.5405C10.2669 85.7826 11.0081 86.0134 11.636 86.2329C12.2563 86.4503 12.7826 86.6618 13.2149 86.8674C13.6472 87.0731 13.9932 87.2751 14.253 87.4734C14.5127 87.6717 14.7044 87.8757 14.8279 88.0853C14.9459 88.2851 15.0074 88.4937 15.0122 88.7113C15.0248 88.931 14.9973 89.1602 14.9297 89.3988Z" fill="white"/>
<path d="M21.2745 66.7175C21.184 66.8959 21.0669 67.0473 20.9231 67.1717C20.7721 67.2925 20.6106 67.381 20.4385 67.4373C20.2665 67.4935 20.0839 67.5175 19.8907 67.5093C19.7012 67.4939 19.5173 67.4409 19.3389 67.3505C19.1605 67.26 19.0091 67.1429 18.8847 66.9991C18.7639 66.8481 18.6754 66.6866 18.6192 66.5145C18.5629 66.3425 18.5425 66.1617 18.5579 65.9722C18.5661 65.779 18.6155 65.5932 18.7059 65.4149C18.7964 65.2365 18.9171 65.0869 19.0681 64.9661C19.2119 64.8417 19.3698 64.7514 19.5419 64.6951C19.7139 64.6389 19.8947 64.6185 20.0843 64.6339C20.2774 64.6421 20.4632 64.6915 20.6416 64.7819C20.8199 64.8724 20.9695 64.9931 21.0903 65.1441C21.2147 65.2879 21.305 65.4458 21.3613 65.6179C21.4175 65.7899 21.4415 65.9725 21.4333 66.1657C21.4179 66.3552 21.365 66.5392 21.2745 66.7175Z" fill="white"/>
<path d="M33.406 51.2359C33.1156 51.6081 32.7769 51.912 32.39 52.1479C31.9967 52.3788 31.5635 52.5178 31.0906 52.5648C30.6113 52.6068 30.1013 52.5387 29.5606 52.3603C29.0199 52.1819 28.4563 51.8639 27.8697 51.4062L27.6805 51.2586C27.1128 50.8157 26.6831 50.3586 26.3912 49.8873C26.0994 49.4161 25.9219 48.9478 25.8588 48.4825C25.7956 48.0172 25.8314 47.5682 25.9661 47.1355C26.0945 46.6979 26.3039 46.293 26.5942 45.9209C26.8747 45.5614 27.1779 45.2703 27.5039 45.0477C27.8347 44.8188 28.177 44.6597 28.5308 44.5704C28.8845 44.4812 29.2448 44.468 29.6117 44.5311C29.9835 44.5878 30.3481 44.7251 30.7056 44.9432L29.9674 45.8893C29.4696 45.6429 29.0028 45.578 28.5669 45.6945C28.131 45.811 27.7383 46.0932 27.3889 46.541C27.2068 46.7743 27.0738 47.0358 26.9899 47.3255C26.9059 47.6151 26.8928 47.9246 26.9505 48.2537C27.0069 48.5716 27.1509 48.9073 27.3826 49.2605C27.6192 49.6075 27.9646 49.9582 28.4187 50.3125L28.6079 50.4602C29.0872 50.8342 29.5352 51.0924 29.9518 51.2348C30.362 51.3722 30.7369 51.4314 31.0766 51.4123C31.4162 51.3932 31.7163 51.3077 31.9768 51.1558C32.2374 51.004 32.4489 50.824 32.6113 50.6158C32.9951 50.1239 33.1755 49.6456 33.1524 49.1811C33.1292 48.7166 32.9506 48.3083 32.6164 47.9563L33.3546 47.0102C33.6811 47.3461 33.9177 47.6931 34.0645 48.0511C34.205 48.4043 34.2693 48.764 34.2575 49.1302C34.2507 49.4901 34.1726 49.8503 34.0233 50.2107C33.8726 50.5599 33.6668 50.9016 33.406 51.2359Z" fill="white"/>
<path d="M34.3649 37.063L35.1724 36.2753L37.6944 38.861L38.3817 38.1907L38.2134 33.3092L39.1755 32.3708L39.3454 37.8039L45.1266 38.3003L44.0958 39.3057L39.0352 38.8608L38.348 39.5311L41.0376 42.2886L40.2301 43.0762L34.3649 37.063Z" fill="white"/>
<path d="M45.3503 27.1411L47.656 25.4154C48.0979 25.0847 48.5206 24.8483 48.9239 24.7063C49.3272 24.5643 49.7041 24.5071 50.0545 24.5346C50.4065 24.551 50.7296 24.6489 51.0238 24.8284C51.3132 25.0015 51.5706 25.2386 51.7959 25.5396C52.0212 25.8406 52.1784 26.1576 52.2677 26.4905C52.3522 26.8169 52.3551 27.1545 52.2763 27.5033C52.1992 27.8408 52.0356 28.183 51.7857 28.53C51.5357 28.8769 51.1898 29.2158 50.7479 29.5465L49.3452 30.5963L51.2866 33.1903L50.3835 33.8662L45.3503 27.1411ZM50.1102 28.7947C50.4305 28.555 50.6779 28.3249 50.8525 28.1042C51.0287 27.8724 51.1434 27.6517 51.1964 27.4422C51.2558 27.2278 51.2544 27.019 51.1922 26.8158C51.1364 26.6077 51.0366 26.4076 50.8928 26.2155C50.749 26.0233 50.5851 25.8712 50.4012 25.759C50.2238 25.642 50.0238 25.5818 49.8014 25.5784C49.5854 25.5702 49.3438 25.6211 49.0765 25.7313C48.8108 25.8302 48.5178 25.9995 48.1976 26.2392L46.843 27.253L48.7556 29.8085L50.1102 28.7947Z" fill="white"/>
<path d="M63.6958 25.1164C63.2774 25.3516 62.8337 25.5092 62.3647 25.5893C61.8919 25.6623 61.4213 25.6332 60.9528 25.5019C60.4844 25.3706 60.0282 25.1222 59.5843 24.7569C59.1403 24.3916 58.7341 23.8811 58.3656 23.2256L58.248 23.0164C57.8952 22.3887 57.6821 21.7973 57.6086 21.2421C57.5352 20.6869 57.5661 20.1785 57.7013 19.7171C57.8326 19.2486 58.0544 18.8349 58.3665 18.4759C58.6786 18.117 59.0439 17.8199 59.4623 17.5847C59.8808 17.3495 60.3245 17.1919 60.7934 17.1118C61.2623 17.0318 61.731 17.0574 62.1994 17.1888C62.664 17.3131 63.1143 17.551 63.5504 17.9024C63.9865 18.2537 64.3809 18.7433 64.7337 19.3709L64.8513 19.5801C65.2198 20.2357 65.4447 20.848 65.526 21.4172C65.6073 21.9864 65.5823 22.5051 65.451 22.9736C65.3196 23.442 65.0999 23.8592 64.7917 24.2252C64.4795 24.5842 64.1142 24.8812 63.6958 25.1164ZM63.2019 24.2377C63.4878 24.077 63.7339 23.8699 63.9401 23.6163C64.1463 23.3628 64.2878 23.0676 64.3646 22.7307C64.4375 22.3869 64.4333 22.0038 64.3519 21.5815C64.2736 21.1483 64.0914 20.6772 63.8052 20.1681L63.6876 19.9589C63.4172 19.4777 63.1231 19.1015 62.8055 18.8304C62.491 18.5483 62.1718 18.356 61.8481 18.2535C61.5204 18.144 61.1947 18.1114 60.8709 18.1558C60.547 18.2001 60.2422 18.3027 59.9563 18.4634C59.6703 18.6241 59.4243 18.8312 59.218 19.0848C59.0118 19.3384 58.8703 19.6336 58.7935 19.9704C58.7128 20.3003 58.7077 20.6748 58.7781 21.0941C58.8516 21.5024 59.0236 21.9472 59.2941 22.4284L59.4117 22.6376C59.6979 23.1467 60.0021 23.5493 60.3245 23.8453C60.65 24.1304 60.9785 24.3312 61.3101 24.4476C61.6377 24.5571 61.9635 24.5897 62.2873 24.5453C62.6111 24.501 62.916 24.3984 63.2019 24.2377Z" fill="white"/>
<path d="M72.5244 20.6201C72.4129 20.6643 72.2969 20.6973 72.1765 20.7191L71.7702 19.6926C71.8104 19.6853 71.8676 19.6669 71.942 19.6375C72.0908 19.5786 72.2122 19.5048 72.3061 19.416C72.4045 19.3168 72.4696 19.1878 72.5014 19.029C72.5376 18.8598 72.5384 18.6444 72.5038 18.3828C72.4765 18.1182 72.4079 17.7927 72.2979 17.406C72.185 17.0119 72.03 16.5441 71.8329 16.0026C71.6359 15.4612 71.3916 14.8222 71.1002 14.0858L70.3937 12.3005L75.6381 10.2252L78.7289 18.0359L77.68 18.451L74.9513 11.5552L71.8047 12.8004L72.2374 13.8939C72.5641 14.7196 72.831 15.4485 73.0382 16.0806C73.2424 16.7053 73.3941 17.2518 73.4934 17.7202C73.5927 18.1885 73.6424 18.5861 73.6427 18.9129C73.643 19.2397 73.5974 19.5159 73.506 19.7413C73.419 19.9564 73.2906 20.132 73.1207 20.268C72.9538 20.4115 72.7551 20.5289 72.5244 20.6201Z" fill="white"/>
<path d="M85.394 15.9643C85.2774 15.993 85.158 16.01 85.0358 16.0154L84.7717 14.9435C84.8125 14.9417 84.8717 14.9312 84.9494 14.9121C85.1047 14.8738 85.2349 14.817 85.3399 14.7417C85.4508 14.6567 85.5327 14.5377 85.5856 14.3846C85.6444 14.2218 85.6743 14.0085 85.6752 13.7446C85.6838 13.4788 85.6598 13.1469 85.6029 12.749C85.5442 12.3432 85.4537 11.8588 85.3314 11.2957C85.2092 10.7326 85.0533 10.0666 84.8639 9.29755L84.4046 7.43329L89.8809 6.0842L91.8902 14.2403L90.7949 14.5102L89.021 7.30945L85.7352 8.1189L86.0165 9.26077C86.229 10.123 86.3952 10.8812 86.5151 11.5355C86.6332 12.1821 86.7099 12.744 86.7451 13.2215C86.7803 13.6989 86.776 14.0996 86.7322 14.4234C86.6884 14.7473 86.606 15.0148 86.485 15.2259C86.3698 15.4273 86.2189 15.5839 86.0323 15.6958C85.8475 15.8155 85.6348 15.905 85.394 15.9643Z" fill="white"/>
<path d="M108.243 10.2535C108.044 10.2631 107.854 10.2363 107.675 10.1728C107.495 10.1014 107.338 10.0049 107.204 9.88323C107.07 9.76156 106.959 9.61476 106.871 9.44283C106.79 9.27051 106.745 9.08447 106.735 8.8847C106.726 8.68494 106.753 8.49542 106.816 8.31615C106.887 8.13649 106.984 7.97964 107.106 7.84561C107.227 7.71158 107.374 7.60436 107.547 7.52394C107.719 7.43554 107.904 7.3865 108.104 7.37685C108.304 7.36719 108.494 7.39806 108.673 7.46947C108.853 7.53289 109.009 7.62543 109.143 7.7471C109.277 7.86877 109.385 8.01576 109.465 8.18808C109.553 8.36001 109.602 8.54586 109.612 8.74563C109.622 8.9454 109.591 9.13511 109.519 9.31477C109.456 9.49404 109.364 9.65069 109.242 9.78472C109.12 9.91875 108.973 10.03 108.801 10.1184C108.629 10.1988 108.443 10.2438 108.243 10.2535Z" fill="white"/>
<path d="M127.7 13.1345C127.233 13.0664 126.801 12.9225 126.405 12.703C126.009 12.4755 125.674 12.1679 125.399 11.7801C125.126 11.3844 124.932 10.9075 124.82 10.3494C124.707 9.79131 124.705 9.14415 124.812 8.40795L124.847 8.17047C124.951 7.45801 125.135 6.85838 125.4 6.37156C125.666 5.88474 125.985 5.49877 126.358 5.21366C126.731 4.92856 127.139 4.73746 127.581 4.64037C128.025 4.53536 128.481 4.51694 128.948 4.58511C129.399 4.65096 129.802 4.77041 130.157 4.94345C130.519 5.11765 130.827 5.33638 131.079 5.59962C131.332 5.86286 131.522 6.16948 131.649 6.51946C131.783 6.87059 131.844 7.25544 131.832 7.67401L130.644 7.50071C130.612 6.94624 130.437 6.50843 130.121 6.18729C129.804 5.86615 129.364 5.66457 128.802 5.58254C128.509 5.53979 128.216 5.55361 127.923 5.624C127.63 5.69439 127.354 5.83611 127.097 6.04916C126.848 6.25545 126.628 6.54668 126.436 6.92284C126.251 7.30017 126.117 7.77381 126.034 8.34377L126 8.58125C125.912 9.18288 125.909 9.69991 125.992 10.1323C126.075 10.5569 126.209 10.912 126.394 11.1976C126.579 11.4833 126.801 11.7018 127.062 11.853C127.323 12.0043 127.584 12.099 127.845 12.1371C128.463 12.2272 128.968 12.1473 129.36 11.8973C129.752 11.6473 130.019 11.2901 130.159 10.8255L131.347 10.9988C131.216 11.4487 131.032 11.826 130.793 12.1308C130.556 12.4276 130.275 12.6615 129.951 12.8325C129.635 13.0046 129.283 13.115 128.896 13.1636C128.518 13.2055 128.119 13.1958 127.7 13.1345Z" fill="white"/>
<path d="M140.49 6.95405L141.574 7.26599L140.575 10.7371L141.498 11.0026L145.657 8.44072L146.948 8.81238L142.311 11.6486L144.741 16.918L143.357 16.5198L141.239 11.9021L140.317 11.6366L139.251 15.3384L138.167 15.0265L140.49 6.95405Z" fill="white"/>
<path d="M154.548 11.5898L157.189 12.7395C157.695 12.9598 158.11 13.2101 158.433 13.4903C158.756 13.7705 158.992 14.0697 159.141 14.3878C159.301 14.7018 159.376 15.031 159.366 15.3755C159.359 15.7126 159.28 16.0536 159.13 16.3983C158.98 16.7431 158.782 17.0366 158.537 17.2789C158.295 17.5139 158.003 17.6834 157.661 17.7876C157.33 17.8876 156.951 17.9148 156.526 17.8693C156.101 17.8238 155.635 17.6909 155.129 17.4705L153.523 16.7712L152.23 19.7418L151.195 19.2915L154.548 11.5898ZM155.467 16.5444C155.834 16.704 156.156 16.8052 156.434 16.8477C156.723 16.8861 156.972 16.8765 157.18 16.8189C157.396 16.7645 157.576 16.6599 157.722 16.5053C157.875 16.3538 158 16.1681 158.096 15.9481C158.191 15.728 158.243 15.5103 158.249 15.295C158.263 15.0829 158.216 14.8794 158.109 14.6844C158.009 14.4927 157.846 14.3079 157.618 14.1301C157.4 13.9482 157.108 13.7774 156.741 13.6177L155.19 12.9423L153.916 15.869L155.467 16.5444Z" fill="white"/>
<path d="M165.386 26.5296C164.975 26.2824 164.618 25.9749 164.317 25.607C164.019 25.2322 163.812 24.8088 163.694 24.3368C163.576 23.8648 163.566 23.3455 163.664 22.7789C163.762 22.2123 164.004 21.6067 164.392 20.9622L164.515 20.7564C164.886 20.1393 165.295 19.6614 165.741 19.3228C166.187 18.9842 166.644 18.7595 167.112 18.6487C167.584 18.531 168.053 18.5189 168.519 18.6125C168.986 18.7061 169.425 18.8765 169.836 19.1237C170.248 19.3709 170.604 19.6785 170.906 20.0464C171.207 20.4143 171.417 20.8342 171.535 21.3063C171.657 21.7714 171.673 22.2805 171.583 22.8333C171.494 23.3862 171.263 23.9712 170.893 24.5883L170.769 24.7941C170.382 25.4386 169.961 25.9371 169.507 26.2894C169.052 26.6417 168.589 26.8767 168.117 26.9944C167.645 27.1121 167.174 27.1276 166.703 27.0409C166.237 26.9473 165.798 26.7769 165.386 26.5296ZM165.905 25.6656C166.187 25.8345 166.488 25.9459 166.811 25.9996C167.133 26.0533 167.46 26.0302 167.79 25.9302C168.125 25.8234 168.456 25.6302 168.783 25.3505C169.12 25.0681 169.44 24.6766 169.74 24.176L169.864 23.9703C170.148 23.4971 170.33 23.0555 170.408 22.6453C170.498 22.2324 170.507 21.8599 170.436 21.5278C170.369 21.1889 170.236 20.8897 170.037 20.6303C169.838 20.3709 169.598 20.1567 169.317 19.9877C169.036 19.8188 168.734 19.7075 168.412 19.6538C168.089 19.6001 167.763 19.6232 167.432 19.7231C167.106 19.8162 166.778 19.9971 166.448 20.2658C166.13 20.5318 165.828 20.9013 165.544 21.3745L165.42 21.5802C165.12 22.0808 164.92 22.5444 164.823 22.971C164.736 23.3949 164.724 23.7797 164.787 24.1255C164.854 24.4645 164.987 24.7636 165.186 25.0231C165.384 25.2825 165.624 25.4967 165.905 25.6656Z" fill="white"/>
<path d="M173.662 31.9766C173.569 31.9015 173.483 31.817 173.404 31.7232L174.095 30.8622C174.121 30.8935 174.166 30.9342 174.228 30.9842C174.353 31.0844 174.477 31.1533 174.601 31.191C174.736 31.2274 174.88 31.2202 175.034 31.1692C175.199 31.117 175.386 31.0111 175.596 30.8515C175.813 30.6969 176.062 30.4761 176.343 30.1892C176.63 29.8961 176.96 29.5299 177.333 29.0907C177.706 28.6515 178.14 28.1231 178.636 27.5054L179.838 26.008L184.236 29.5382L178.978 36.0893L178.099 35.3832L182.74 29.5996L180.101 27.4815L179.365 28.3986C178.809 29.0911 178.308 29.6838 177.861 30.1766C177.42 30.6632 177.02 31.0655 176.662 31.3835C176.304 31.7015 175.983 31.9415 175.699 32.1035C175.415 32.2655 175.153 32.3625 174.912 32.3946C174.682 32.4255 174.466 32.4008 174.263 32.3205C174.056 32.2465 173.856 32.1318 173.662 31.9766Z" fill="white"/>
<path d="M184.077 40.8562C183.994 40.7692 183.92 40.6739 183.855 40.5703L184.656 39.8104C184.678 39.8449 184.716 39.8912 184.771 39.9492C184.881 40.0653 184.995 40.1503 185.112 40.2043C185.241 40.2586 185.385 40.2709 185.544 40.2411C185.715 40.2116 185.915 40.132 186.145 40.0022C186.38 39.8782 186.657 39.693 186.974 39.4467C187.298 39.1949 187.674 38.8765 188.103 38.4916C188.532 38.1067 189.033 37.6417 189.608 37.0965L191 35.7749L194.883 39.866L188.79 45.6482L188.013 44.8299L193.393 39.7251L191.063 37.2705L190.21 38.08C189.566 38.6912 188.989 39.2109 188.48 39.6389C187.977 40.0615 187.526 40.4062 187.129 40.673C186.731 40.9399 186.381 41.1345 186.078 41.2567C185.775 41.3789 185.502 41.4396 185.258 41.4389C185.026 41.4385 184.816 41.3849 184.626 41.2781C184.431 41.1767 184.248 41.0361 184.077 40.8562Z" fill="white"/>
<path d="M200.346 57.8861C200.239 57.7173 200.169 57.5393 200.135 57.3522C200.108 57.1607 200.114 56.9766 200.154 56.8C200.193 56.6233 200.266 56.454 200.371 56.2921C200.481 56.1369 200.621 56.0057 200.79 55.8985C200.958 55.7912 201.136 55.7208 201.324 55.6872C201.515 55.6603 201.699 55.6666 201.876 55.706C202.052 55.7454 202.218 55.8201 202.374 55.93C202.535 56.0357 202.67 56.1729 202.777 56.3417C202.885 56.5105 202.952 56.6907 202.978 56.8821C203.012 57.0693 203.009 57.2512 202.97 57.4279C202.93 57.6046 202.856 57.7705 202.746 57.9256C202.64 58.0876 202.503 58.2221 202.334 58.3294C202.165 58.4366 201.985 58.5037 201.794 58.5305C201.606 58.5641 201.425 58.5612 201.248 58.5218C201.071 58.4824 200.902 58.4099 200.74 58.3043C200.585 58.1943 200.454 58.0549 200.346 57.8861Z" fill="white"/>
<path d="M207.471 76.2187C207.299 75.7791 207.211 75.3327 207.205 74.8796C207.207 74.4235 207.309 73.9801 207.51 73.5493C207.718 73.1157 208.037 72.7118 208.466 72.3378C208.895 71.9638 209.457 71.6413 210.149 71.3704L210.373 71.283C211.044 71.0208 211.656 70.8844 212.21 70.8738C212.764 70.8633 213.258 70.9496 213.69 71.1327C214.122 71.3158 214.49 71.5756 214.794 71.9123C215.105 72.246 215.346 72.6326 215.518 73.0722C215.684 73.4969 215.78 73.9062 215.805 74.3001C215.833 74.7014 215.795 75.0769 215.691 75.4267C215.588 75.7765 215.415 76.0931 215.174 76.3765C214.935 76.6673 214.631 76.9108 214.261 77.107L213.824 75.9894C214.29 75.687 214.584 75.3186 214.706 74.8843C214.828 74.45 214.786 73.9683 214.579 73.4393C214.471 73.1636 214.314 72.9158 214.108 72.6958C213.902 72.4758 213.642 72.3067 213.33 72.1884C213.028 72.0746 212.665 72.0272 212.243 72.0462C211.824 72.0727 211.346 72.1908 210.81 72.4006L210.586 72.488C210.02 72.7094 209.57 72.9629 209.235 73.2485C208.907 73.5312 208.665 73.8235 208.508 74.1253C208.351 74.4272 208.272 74.7289 208.269 75.0304C208.267 75.332 208.314 75.6057 208.41 75.8516C208.637 76.4327 208.956 76.8319 209.368 77.049C209.779 77.2661 210.221 77.3208 210.695 77.213L211.132 78.3306C210.676 78.44 210.257 78.4665 209.874 78.41C209.499 78.3507 209.157 78.2225 208.848 78.0255C208.542 77.8359 208.272 77.585 208.038 77.2727C207.815 76.9649 207.626 76.6136 207.471 76.2187Z" fill="white"/>
<path d="M219.172 84.2745L219.437 85.3708L215.926 86.2206L216.152 87.1536L220.436 89.4996L220.752 90.8059L215.993 88.1798L212.616 92.8987L212.278 91.4991L215.242 87.3738L215.017 86.4408L211.273 87.347L211.007 86.2506L219.172 84.2745Z" fill="white"/>
<path d="M222.1 98.7848L222.407 101.648C222.466 102.197 222.454 102.681 222.37 103.101C222.287 103.52 222.144 103.873 221.941 104.161C221.747 104.455 221.498 104.683 221.194 104.844C220.897 105.005 220.562 105.105 220.188 105.145C219.814 105.186 219.462 105.159 219.13 105.066C218.806 104.972 218.514 104.802 218.254 104.557C218.003 104.318 217.792 104.003 217.622 103.611C217.451 103.219 217.336 102.748 217.277 102.2L217.09 100.458L213.868 100.804L213.748 99.6823L222.1 98.7848ZM218.249 102.035C218.292 102.433 218.363 102.763 218.464 103.026C218.573 103.295 218.705 103.507 218.858 103.659C219.012 103.82 219.192 103.925 219.399 103.975C219.606 104.033 219.829 104.05 220.068 104.024C220.306 103.998 220.521 103.935 220.711 103.834C220.902 103.741 221.056 103.6 221.173 103.41C221.29 103.229 221.369 102.995 221.411 102.709C221.461 102.43 221.465 102.092 221.423 101.694L221.242 100.011L218.068 100.353L218.249 102.035Z" fill="white"/>
<path d="M214.48 115.596C214.491 115.116 214.582 114.654 214.753 114.21C214.931 113.766 215.196 113.376 215.548 113.04C215.9 112.704 216.347 112.439 216.887 112.243C217.428 112.048 218.074 111.959 218.826 111.976L219.066 111.982C219.786 111.999 220.403 112.117 220.918 112.337C221.433 112.558 221.855 112.844 222.182 113.195C222.518 113.547 222.761 113.949 222.91 114.401C223.06 114.852 223.129 115.318 223.118 115.798C223.107 116.278 223.016 116.74 222.845 117.184C222.675 117.628 222.414 118.018 222.062 118.354C221.718 118.69 221.283 118.956 220.759 119.152C220.234 119.347 219.612 119.437 218.892 119.42L218.652 119.414C217.9 119.397 217.259 119.278 216.728 119.057C216.197 118.837 215.763 118.551 215.428 118.199C215.092 117.847 214.845 117.445 214.688 116.993C214.538 116.541 214.469 116.076 214.48 115.596ZM215.488 115.619C215.48 115.947 215.533 116.265 215.646 116.571C215.759 116.878 215.94 117.15 216.191 117.388C216.449 117.626 216.781 117.818 217.186 117.964C217.598 118.117 218.096 118.201 218.68 118.215L218.92 118.22C219.472 118.233 219.945 118.172 220.341 118.038C220.744 117.911 221.072 117.735 221.325 117.508C221.587 117.282 221.781 117.019 221.908 116.718C222.035 116.417 222.102 116.102 222.11 115.774C222.118 115.446 222.065 115.129 221.952 114.822C221.839 114.516 221.658 114.243 221.407 114.005C221.165 113.768 220.845 113.572 220.449 113.419C220.06 113.274 219.59 113.195 219.038 113.182L218.798 113.176C218.214 113.162 217.713 113.219 217.294 113.345C216.882 113.479 216.542 113.66 216.273 113.885C216.011 114.111 215.817 114.375 215.69 114.676C215.563 114.977 215.496 115.292 215.488 115.619Z" fill="white"/>
<path d="M213.842 125.483C213.861 125.365 213.892 125.248 213.935 125.133L215.025 125.308C215.011 125.346 214.997 125.405 214.985 125.484C214.959 125.642 214.961 125.784 214.989 125.91C215.025 126.045 215.102 126.167 215.223 126.275C215.35 126.393 215.535 126.503 215.777 126.607C216.019 126.718 216.334 126.826 216.722 126.928C217.119 127.032 217.6 127.138 218.167 127.244C218.733 127.351 219.407 127.467 220.189 127.592L222.085 127.896L221.194 133.465L212.899 132.138L213.078 131.024L220.4 132.195L220.935 128.854L219.774 128.668C218.897 128.528 218.134 128.385 217.485 128.241C216.843 128.098 216.296 127.95 215.842 127.796C215.389 127.642 215.021 127.482 214.74 127.316C214.459 127.149 214.245 126.969 214.097 126.776C213.957 126.591 213.871 126.391 213.841 126.176C213.803 125.959 213.803 125.728 213.842 125.483Z" fill="white"/>
<path d="M211.28 138.927C211.315 138.812 211.361 138.701 211.419 138.593L212.476 138.912C212.456 138.948 212.435 139.005 212.412 139.081C212.366 139.234 212.348 139.375 212.359 139.504C212.376 139.643 212.436 139.774 212.541 139.898C212.651 140.031 212.819 140.166 213.046 140.301C213.27 140.444 213.568 140.593 213.939 140.747C214.318 140.903 214.781 141.073 215.327 141.255C215.874 141.437 216.526 141.643 217.284 141.872L219.122 142.429L217.488 147.827L209.448 145.393L209.775 144.314L216.873 146.462L217.853 143.223L216.728 142.883C215.878 142.625 215.141 142.381 214.517 142.151C213.901 141.922 213.378 141.702 212.95 141.488C212.521 141.275 212.179 141.067 211.923 140.864C211.666 140.661 211.478 140.454 211.359 140.242C211.244 140.04 211.187 139.83 211.186 139.613C211.177 139.393 211.208 139.164 211.28 138.927Z" fill="white"/>
<path d="M204.533 161.492C204.627 161.316 204.747 161.166 204.893 161.045C205.046 160.927 205.209 160.841 205.382 160.788C205.555 160.734 205.738 160.714 205.931 160.725C206.12 160.744 206.303 160.8 206.48 160.894C206.657 160.988 206.806 161.107 206.928 161.253C207.046 161.407 207.131 161.57 207.185 161.743C207.238 161.916 207.255 162.097 207.236 162.286C207.225 162.479 207.172 162.664 207.078 162.841C206.985 163.017 206.861 163.165 206.708 163.283C206.562 163.405 206.403 163.492 206.23 163.545C206.057 163.598 205.876 163.616 205.686 163.597C205.493 163.585 205.308 163.533 205.132 163.439C204.955 163.345 204.808 163.222 204.689 163.069C204.568 162.923 204.48 162.763 204.427 162.59C204.374 162.417 204.353 162.234 204.365 162.041C204.383 161.852 204.44 161.669 204.533 161.492Z" fill="white"/>
<path d="M192.128 176.755C192.425 176.388 192.769 176.09 193.16 175.862C193.558 175.638 193.993 175.506 194.467 175.468C194.947 175.434 195.456 175.512 195.993 175.699C196.53 175.887 197.088 176.215 197.667 176.683L197.853 176.834C198.413 177.287 198.834 177.752 199.118 178.228C199.401 178.705 199.57 179.176 199.625 179.642C199.68 180.109 199.636 180.557 199.494 180.987C199.358 181.423 199.141 181.824 198.844 182.191C198.558 182.545 198.249 182.831 197.919 183.047C197.585 183.27 197.24 183.423 196.884 183.506C196.529 183.589 196.168 183.596 195.803 183.527C195.432 183.463 195.07 183.319 194.716 183.095L195.471 182.162C195.965 182.417 196.43 182.491 196.868 182.382C197.306 182.273 197.704 181.998 198.061 181.556C198.247 181.326 198.385 181.067 198.474 180.779C198.563 180.491 198.582 180.182 198.53 179.852C198.479 179.533 198.341 179.195 198.116 178.837C197.885 178.486 197.546 178.13 197.098 177.767L196.912 177.616C196.439 177.234 195.996 176.968 195.582 176.818C195.174 176.673 194.8 176.607 194.46 176.62C194.121 176.633 193.819 176.714 193.556 176.861C193.293 177.008 193.078 177.184 192.912 177.389C192.519 177.874 192.33 178.349 192.345 178.814C192.36 179.279 192.532 179.691 192.859 180.048L192.104 180.981C191.784 180.64 191.554 180.289 191.413 179.928C191.279 179.572 191.221 179.212 191.239 178.846C191.253 178.486 191.337 178.127 191.493 177.769C191.65 177.423 191.862 177.085 192.128 176.755Z" fill="white"/>
<path d="M190.918 190.909L190.096 191.682L187.62 189.052L186.921 189.71L187.003 194.594L186.024 195.515L185.951 190.08L180.18 189.481L181.228 188.494L186.28 189.029L186.979 188.371L184.339 185.566L185.16 184.793L190.918 190.909Z" fill="white"/>
<path d="M179.758 200.634L177.421 202.319C176.974 202.642 176.547 202.87 176.141 203.005C175.735 203.14 175.358 203.191 175.008 203.157C174.656 203.134 174.335 203.031 174.044 202.846C173.757 202.668 173.504 202.426 173.284 202.121C173.065 201.816 172.913 201.496 172.83 201.162C172.751 200.834 172.754 200.496 172.839 200.149C172.922 199.813 173.092 199.474 173.348 199.131C173.604 198.789 173.956 198.456 174.404 198.133L175.825 197.109L173.93 194.481L174.845 193.821L179.758 200.634ZM175.028 198.896C174.703 199.13 174.452 199.356 174.273 199.574C174.093 199.802 173.974 200.021 173.918 200.229C173.854 200.443 173.852 200.651 173.911 200.856C173.963 201.065 174.059 201.267 174.199 201.461C174.34 201.656 174.501 201.811 174.683 201.926C174.858 202.047 175.057 202.11 175.279 202.118C175.495 202.13 175.738 202.083 176.007 201.978C176.274 201.884 176.57 201.719 176.895 201.486L178.267 200.496L176.4 197.907L175.028 198.896Z" fill="white"/>
<path d="M161.379 202.333C161.802 202.105 162.248 201.955 162.718 201.883C163.193 201.819 163.663 201.856 164.129 201.996C164.595 202.136 165.046 202.392 165.484 202.765C165.921 203.138 166.318 203.656 166.675 204.318L166.789 204.529C167.13 205.163 167.333 205.758 167.397 206.315C167.46 206.871 167.42 207.379 167.277 207.838C167.137 208.304 166.908 208.713 166.59 209.067C166.271 209.42 165.901 209.711 165.478 209.938C165.056 210.166 164.609 210.316 164.139 210.388C163.669 210.459 163.2 210.425 162.734 210.286C162.272 210.153 161.826 209.907 161.396 209.548C160.967 209.189 160.581 208.693 160.239 208.059L160.125 207.847C159.769 207.185 159.555 206.569 159.484 205.999C159.412 205.428 159.447 204.91 159.586 204.444C159.726 203.978 159.953 203.565 160.268 203.204C160.586 202.851 160.957 202.56 161.379 202.333ZM161.857 203.22C161.569 203.376 161.319 203.578 161.108 203.828C160.898 204.078 160.751 204.371 160.668 204.706C160.589 205.048 160.587 205.432 160.66 205.855C160.731 206.29 160.905 206.764 161.182 207.278L161.296 207.489C161.558 207.975 161.845 208.357 162.158 208.633C162.467 208.921 162.783 209.119 163.105 209.227C163.43 209.343 163.755 209.381 164.08 209.342C164.405 209.304 164.711 209.207 165 209.051C165.289 208.895 165.538 208.693 165.749 208.443C165.96 208.193 166.106 207.9 166.189 207.565C166.276 207.237 166.288 206.862 166.225 206.442C166.158 206.032 165.994 205.584 165.732 205.098L165.619 204.887C165.342 204.373 165.044 203.965 164.727 203.663C164.407 203.373 164.082 203.166 163.753 203.044C163.427 202.928 163.102 202.89 162.777 202.929C162.453 202.967 162.146 203.064 161.857 203.22Z" fill="white"/>
<path d="M152.472 206.671C152.584 206.629 152.701 206.598 152.821 206.579L153.209 207.612C153.169 207.619 153.111 207.636 153.037 207.664C152.887 207.72 152.764 207.792 152.669 207.879C152.568 207.977 152.501 208.104 152.466 208.263C152.427 208.431 152.423 208.647 152.453 208.909C152.475 209.174 152.538 209.5 152.641 209.889C152.747 210.285 152.894 210.755 153.081 211.3C153.268 211.845 153.501 212.488 153.78 213.23L154.454 215.028L149.174 217.009L146.222 209.145L147.278 208.748L149.884 215.692L153.052 214.503L152.639 213.402C152.327 212.57 152.073 211.837 151.877 211.201C151.684 210.573 151.542 210.024 151.451 209.554C151.36 209.084 151.318 208.685 151.323 208.358C151.329 208.032 151.379 207.756 151.475 207.533C151.565 207.319 151.697 207.146 151.869 207.013C152.039 206.872 152.24 206.758 152.472 206.671Z" fill="white"/>
<path d="M139.522 211.097C139.639 211.071 139.758 211.056 139.881 211.052L140.125 212.129C140.085 212.13 140.025 212.139 139.947 212.157C139.791 212.193 139.66 212.247 139.554 212.321C139.441 212.404 139.357 212.521 139.302 212.673C139.24 212.835 139.206 213.048 139.201 213.312C139.187 213.577 139.206 213.909 139.255 214.308C139.307 214.715 139.389 215.201 139.501 215.766C139.613 216.331 139.757 217 139.933 217.772L140.359 219.644L134.86 220.896L132.996 212.705L134.096 212.455L135.741 219.686L139.041 218.935L138.78 217.789C138.583 216.923 138.43 216.162 138.322 215.505C138.215 214.857 138.149 214.294 138.122 213.816C138.095 213.338 138.106 212.937 138.156 212.614C138.206 212.291 138.293 212.025 138.418 211.816C138.536 211.617 138.69 211.463 138.879 211.354C139.065 211.238 139.28 211.152 139.522 211.097Z" fill="white"/>
<path d="M116.574 216.401C116.774 216.395 116.963 216.425 117.141 216.492C117.319 216.566 117.474 216.666 117.606 216.79C117.738 216.914 117.847 217.062 117.932 217.236C118.009 217.41 118.051 217.596 118.057 217.796C118.063 217.996 118.033 218.185 117.966 218.363C117.892 218.542 117.792 218.697 117.668 218.829C117.544 218.96 117.396 219.065 117.222 219.142C117.048 219.228 116.862 219.273 116.662 219.28C116.462 219.286 116.273 219.251 116.094 219.177C115.916 219.11 115.761 219.015 115.629 218.891C115.498 218.767 115.393 218.618 115.316 218.444C115.23 218.271 115.185 218.084 115.178 217.884C115.172 217.684 115.207 217.495 115.281 217.317C115.348 217.139 115.443 216.984 115.567 216.852C115.691 216.72 115.84 216.611 116.013 216.526C116.187 216.449 116.374 216.407 116.574 216.401Z" fill="white"/>
<path d="M112.646 152.354C112.842 152.549 113.158 152.549 113.354 152.354L116.536 149.172C116.731 148.976 116.731 148.66 116.536 148.464C116.34 148.269 116.024 148.269 115.828 148.464L113 151.293L110.172 148.464C109.976 148.269 109.66 148.269 109.464 148.464C109.269 148.66 109.269 148.976 109.464 149.172L112.646 152.354ZM112.5 74V152H113.5V74H112.5Z" fill="white"/>
</svg>
