<svg width="24" height="24" viewBox="0 0 24 24" fill="none" xmlns="http://www.w3.org/2000/svg">
<path d="M5.38889 5.22543C5.55506 5.49309 5.84264 5.64032 6.13705 5.64032C6.29471 5.64032 6.45438 5.59804 6.59829 5.50945C7.01105 5.25529 7.13876 4.71614 6.88352 4.30514C6.69192 3.99666 6.7848 3.56368 6.96053 2.88732C7.1494 2.16058 7.3844 1.25609 6.89199 0.428935C6.64461 0.0132977 6.10584 -0.123951 5.68815 0.122375C5.27073 0.368748 5.1329 0.905416 5.38032 1.3211C5.50003 1.52229 5.37764 1.99338 5.25929 2.44905C5.04971 3.25562 4.78887 4.25934 5.38889 5.22543Z" fill="#A0A0A0"/>
<path d="M8.20127 5.2253C8.36749 5.49296 8.65507 5.64024 8.94947 5.64024C9.10713 5.64024 9.26671 5.598 9.41072 5.50936C9.82347 5.2553 9.95118 4.7161 9.69599 4.30515C9.50439 3.99658 9.59723 3.56369 9.77296 2.88729C9.96182 2.16054 10.1968 1.2561 9.70446 0.428946C9.45704 0.0132614 8.91793 -0.123941 8.50061 0.122386C8.08315 0.368759 7.94532 0.905427 8.1927 1.32106C8.3125 1.52225 8.19006 1.99339 8.07167 2.44901C7.86223 3.25549 7.60144 4.25921 8.20127 5.2253Z" fill="#A0A0A0"/>
<path d="M0.895508 14.96L1.69178 20.1646C1.69625 20.1937 1.69847 20.223 1.69847 20.2524C1.69847 21.2493 2.43086 22.0787 3.38794 22.2362L2.77724 14.96H0.895508Z" fill="#A0A0A0"/>
<path d="M4.56614 22.2635H6.95877V21.8637C6.71473 21.4469 6.51146 21 6.35729 20.5263C6.1559 19.907 6.26521 19.2229 6.64963 18.6967C6.74034 18.5725 6.84452 18.4606 6.95872 18.3613V14.96H3.95312L4.56614 22.2635Z" fill="#A0A0A0"/>
<path d="M8.30735 17.8559H10.8926L11.1356 14.96H8.12988V17.8645C8.18868 17.8593 8.24781 17.8559 8.30735 17.8559Z" fill="#A0A0A0"/>
<path d="M12.0684 17.8559H13.75L14.1931 14.96H12.3114L12.0684 17.8559Z" fill="#A0A0A0"/>
<path d="M14.8845 10.4383L15.0758 9.18828C15.1245 8.86953 15.0314 8.54638 14.8204 8.30183C14.6094 8.05729 14.3026 7.91699 13.9788 7.91699H12.9022L12.6934 10.4048H14.5925C14.6916 10.4048 14.7895 10.4164 14.8845 10.4383Z" fill="#A0A0A0"/>
<path d="M0.483948 10.4048H2.39514L2.18632 7.91699H1.10967C0.78584 7.91699 0.479052 8.05729 0.268015 8.30183C0.0570251 8.54638 -0.0360421 8.86953 0.0126805 9.18828L0.203522 10.4357C0.295036 10.4155 0.388951 10.4048 0.483948 10.4048Z" fill="#A0A0A0"/>
<path d="M6.95907 10.4048V7.91699H3.3623L3.57113 10.4048H6.95907Z" fill="#A0A0A0"/>
<path d="M8.12988 10.4048H11.518L11.7267 7.91699H8.12988V10.4048Z" fill="#A0A0A0"/>
<path d="M23.8381 7.29451C23.5576 6.9002 23.0092 6.80706 22.6132 7.08634C22.4309 7.21501 18.2438 10.2588 16.7167 18.9642H8.3865C8.10536 18.9642 7.84123 19.0982 7.6759 19.3246C7.51053 19.551 7.46397 19.8424 7.55054 20.1088C8.3076 22.4362 10.4675 23.9999 12.9251 23.9999C15.3753 23.9999 17.5296 22.4455 18.2927 20.1298C18.3123 20.0746 18.3264 20.0168 18.3345 19.9571C18.5452 18.5757 18.8271 17.3454 19.1473 16.2565C19.8538 13.854 20.7475 12.1406 21.4778 11.0159C21.6205 10.796 21.761 10.5922 21.8976 10.4038C22.8571 9.08016 23.6238 8.51794 23.629 8.51424C24.025 8.23486 24.1185 7.68878 23.8381 7.29451Z" fill="#A0A0A0"/>
<path d="M14.1278 14.2768C14.443 14.2768 14.709 14.0435 14.7488 13.7322L14.9996 11.7709C15.0472 11.3984 14.7557 11.0688 14.3786 11.0688H0.711037C0.333966 11.0688 0.0424311 11.3984 0.090071 11.7709L0.340792 13.7322C0.380571 14.0435 0.646638 14.2768 0.961758 14.2768H14.1278Z" fill="#A0A0A0"/>
</svg>
