<svg width="24" height="24" viewBox="0 0 24 24" fill="none" xmlns="http://www.w3.org/2000/svg">
<path d="M23.84 9.23016L22.2484 8.03656L13.7656 1.58936C12.7412 0.811359 11.2584 0.811359 10.2344 1.58936L1.75158 8.03656L0.15998 9.23016C-0.0168198 9.36256 -0.0524198 9.61336 0.0799802 9.78976C0.15838 9.89496 0.27878 9.94976 0.40038 9.94976C0.48358 9.94976 0.56798 9.92376 0.63998 9.86976L1.59998 9.14976V10.4378C1.51078 10.4858 1.42998 10.5418 1.36518 10.6098L1.15518 10.791C0.78558 10.9878 0.50918 11.3738 0.42838 11.8122C0.38398 12.0518 0.39798 12.3046 0.46918 12.5438C0.50798 12.6754 0.47718 12.8346 0.38598 12.969C-0.0328199 13.5886 -0.11762 14.4518 0.17518 15.1186C0.21958 15.219 0.27438 15.3134 0.33878 15.4006C0.43118 15.5254 0.46398 15.6906 0.42638 15.8434C0.40598 15.9254 0.39198 16.0098 0.38438 16.0926C0.35158 16.4506 0.42518 16.7986 0.48438 17.0782C0.54638 17.3722 0.64038 17.8166 0.97038 18.1002C1.14358 18.2494 1.36118 18.3306 1.60078 18.3442V19.5498H0.53958C0.38798 19.5498 0.24438 19.6158 0.14558 19.7306C0.0463802 19.8454 0.00278017 19.9974 0.0255802 20.1474L0.45598 22.9942H2.73518H3.54398H4.79998H19.6H21.2612C21.8892 22.9942 22.4 22.4834 22.4 21.8554V9.14976L23.36 9.86976C23.432 9.92376 23.5164 9.94976 23.5996 9.94976C23.7212 9.94976 23.8412 9.89456 23.92 9.78976C24.0524 9.61336 24.0168 9.36256 23.84 9.23016ZM5.59998 22.1946V20.9946H18.8V22.1946H5.59998ZM18.8 16.9946V18.1946H5.59998V16.9946H18.8ZM18.8 14.1946H5.59998V12.9946H18.8V14.1946ZM21.2612 22.1946H19.6V10.1946H4.79998V22.1946H3.66518L3.97518 20.145C3.99758 19.9958 3.95398 19.8446 3.85558 19.7302C3.75678 19.6158 3.61398 19.5502 3.46278 19.5502H2.39998V18.1666C2.42238 18.1562 2.44438 18.145 2.46638 18.1338C3.11078 17.801 3.56478 17.2906 3.74478 16.6958C3.86838 16.2882 3.84118 15.8126 3.67278 15.423C3.60998 15.2778 3.59758 15.1246 3.63318 15.0018C3.64558 14.9582 3.66358 14.9182 3.68838 14.8842C3.82478 14.6966 3.94558 14.471 4.04718 14.2134C4.19918 13.8298 4.25558 13.4922 4.22918 13.1838C4.22438 13.1254 4.22158 13.0662 4.21038 13.0102C4.16878 12.803 4.07718 12.609 3.94438 12.4478C3.87038 12.3582 3.83758 12.2194 3.86278 12.1022C3.93198 11.7786 3.88758 11.4302 3.74038 11.1454C3.50598 10.6942 3.03558 10.3774 2.48198 10.299C2.46038 10.2958 2.43798 10.2934 2.41598 10.291L11.2696 3.56256C11.6992 3.23616 12.3 3.23576 12.7304 3.56256L21.6 10.3034V21.8558C21.6 22.0426 21.448 22.1946 21.2612 22.1946Z" fill="#A0A0A0"/>
</svg>
