<svg width="20" height="24" viewBox="0 0 20 24" fill="none" xmlns="http://www.w3.org/2000/svg">
<path d="M6.32311 14.1239C6.86918 14.1239 7.47029 14.1772 8.01904 14.278V12.6342H12.017V15.568C12.4874 15.7407 12.8308 15.9269 13.1532 16.1612C13.7645 16.6052 14.1004 17.188 14.1205 17.8273C14.8986 17.6435 15.6122 17.3318 16.2297 16.9072C16.4528 16.7539 16.7205 16.6197 16.8773 16.5045V11.9387L9.99945 4.25342L3.00195 11.9851V14.7481C3.4723 14.6289 3.90095 14.5007 4.3978 14.3653C4.98543 14.2051 5.63757 14.1239 6.32311 14.1239Z" fill="#A0A0A0"/>
<path d="M10.0306 2.37838L17.8058 11.0662H19.5791L10.015 0.394043L6.05906 4.75044V2.99187H3.15856V7.95526L0.369141 11.0662H2.16769L10.0306 2.37838Z" fill="#A0A0A0"/>
<path d="M18.7039 17.2429C18.2732 17.2429 17.6934 17.4341 16.9566 17.9406C15.6097 18.8665 13.9609 19.2742 12.4543 19.2742C11.2296 19.2742 10.0991 19.005 9.30064 18.5259C8.90507 18.2885 8.90625 18.2093 9.1357 18.2093C9.59649 18.2093 10.9782 18.529 11.9146 18.529C12.3754 18.529 12.7282 18.4517 12.8108 18.2207C13.1923 17.1523 11.7132 16.8083 10.1666 16.1825C9.03434 15.724 7.65237 15.378 6.33633 15.3779C5.78766 15.3779 5.24558 15.4381 4.74246 15.5752C2.45804 16.1981 0.807266 16.6672 0.336914 16.8196V22.815C1.27762 22.469 2.36727 22.1375 2.98735 22.1375C4.12528 22.1375 8.72979 23.6055 11.3369 23.6055C11.702 23.6055 12.029 23.5767 12.3009 23.5111C14.5137 22.9769 18.3553 19.8482 19.398 18.7801C19.8986 18.2672 19.7006 17.2429 18.7039 17.2429Z" fill="#A0A0A0"/>
</svg>
