<svg width="48" height="48" viewBox="0 0 48 48" fill="none" xmlns="http://www.w3.org/2000/svg">
<rect width="48" height="48" rx="24" fill="#675DA9"/>
<path d="M35.754 12.1845C34.9601 11.4547 31.7461 9.11782 24.5819 9.08581C24.5819 9.08581 16.1372 8.57362 12.0205 12.351C9.72847 14.643 8.92178 17.9915 8.83855 22.153C8.75532 26.3081 8.64648 34.0998 16.1564 36.2125H16.1628L16.1564 39.4329C16.1564 39.4329 16.1116 40.739 16.9695 41.0015C18.0067 41.3216 18.6213 40.3292 19.6137 39.26C20.1579 38.671 20.907 37.8131 21.4768 37.1537C26.6114 37.5826 30.5617 36.5967 31.0099 36.4494C32.047 36.1101 37.918 35.361 38.8719 27.5694C39.8579 19.5536 38.3918 14.4766 35.754 12.1845ZM36.6247 27.006C35.818 33.5107 31.0611 33.9205 30.184 34.2022C29.8126 34.3238 26.3425 35.1882 21.9761 34.9C21.9761 34.9 18.7238 38.8247 17.7122 39.8427C17.5521 40.0027 17.3665 40.0667 17.2448 40.0347C17.072 39.9899 17.0207 39.785 17.0271 39.4841C17.0271 39.0488 17.0527 34.1254 17.0527 34.1254C17.0463 34.1254 17.0463 34.1254 17.0527 34.1254C10.6952 32.3647 11.0666 25.7319 11.137 22.2618C11.2074 18.7918 11.8605 15.9427 13.8004 14.0284C17.2768 10.8785 24.4539 11.3458 24.4539 11.3458C30.5105 11.3714 33.4107 13.1961 34.083 13.8043C36.3174 15.725 37.457 20.3027 36.6247 27.006Z" fill="white"/>
<path d="M27.5331 22.3835C27.3218 22.3835 27.1425 22.217 27.1297 21.9993C27.0593 20.6228 26.4127 19.9506 25.0938 19.8802C24.8697 19.8674 24.6968 19.6753 24.7097 19.4512C24.7225 19.2271 24.9145 19.0543 25.1386 19.0671C26.88 19.1631 27.8532 20.1619 27.9428 21.9545C27.9556 22.1786 27.7828 22.3707 27.5587 22.3771C27.5459 22.3835 27.5395 22.3835 27.5331 22.3835Z" fill="white"/>
<path d="M29.6077 23.0753H29.6013C29.3772 23.0689 29.1979 22.8832 29.2043 22.6591C29.2363 21.2762 28.8394 20.1558 27.9943 19.2339C27.1556 18.3119 25.9968 17.8126 24.4666 17.7037C24.2425 17.6845 24.0761 17.4924 24.0953 17.2684C24.1145 17.0443 24.3065 16.8778 24.5306 16.897C26.2593 17.0251 27.6229 17.6269 28.5961 18.6897C29.5757 19.7589 30.0494 21.097 30.0174 22.6783C30.011 22.9024 29.8254 23.0753 29.6077 23.0753Z" fill="white"/>
<path d="M31.734 23.9075C31.5099 23.9075 31.3306 23.7283 31.3306 23.5042C31.3114 21.0265 30.6007 19.1378 29.1538 17.7229C27.7261 16.3271 25.9142 15.6165 23.7823 15.5973C23.5582 15.5973 23.3789 15.4116 23.3789 15.1875C23.3789 14.9634 23.5646 14.7842 23.7823 14.7842C26.1319 14.8034 28.1294 15.5909 29.7108 17.1402C31.2986 18.6896 32.1117 20.828 32.1373 23.4914C32.1437 23.7218 31.9644 23.9075 31.734 23.9075C31.7404 23.9075 31.7404 23.9075 31.734 23.9075Z" fill="white"/>
<path d="M25.1906 27.3967C25.1906 27.3967 25.7605 27.4479 26.0678 27.0702L26.6632 26.3211C26.9513 25.9498 27.6491 25.7129 28.3278 26.0906C28.7055 26.3019 29.3906 26.7244 29.8131 27.0382C30.2677 27.3711 31.1896 28.1394 31.196 28.1458C31.6378 28.5171 31.7402 29.0613 31.4393 29.6439C31.4393 29.6439 31.4393 29.6503 31.4393 29.6567C31.132 30.2009 30.7159 30.7131 30.1973 31.1869C30.1909 31.1869 30.1909 31.1933 30.1845 31.1933C29.7555 31.5518 29.333 31.7567 28.9232 31.8015C28.872 31.8143 28.8144 31.8143 28.7375 31.8143C28.5583 31.8143 28.379 31.7887 28.1998 31.7311L28.1869 31.7119C27.5467 31.5326 26.4839 31.0844 24.7169 30.1049C23.5645 29.471 22.6105 28.8244 21.7974 28.1778C21.3685 27.8385 20.9331 27.4607 20.4849 27.0126C20.4721 26.9997 20.4529 26.9805 20.4401 26.9677C20.4273 26.9549 20.4081 26.9357 20.3953 26.9229C20.3825 26.9101 20.3633 26.8909 20.3505 26.8781C20.3377 26.8653 20.3185 26.8461 20.3057 26.8333C19.8639 26.3851 19.4798 25.9498 19.1404 25.5208C18.4938 24.7141 17.8472 23.7538 17.2133 22.6013C16.2338 20.8279 15.7856 19.7651 15.6063 19.1313L15.5871 19.1185C15.5295 18.9392 15.5039 18.7599 15.5039 18.5807C15.5039 18.5038 15.5039 18.4462 15.5167 18.395C15.5679 17.9788 15.7728 17.5627 16.1249 17.1337C16.1249 17.1273 16.1313 17.1273 16.1313 17.1209C16.6051 16.5959 17.1173 16.1862 17.6615 15.8789C17.6615 15.8789 17.6679 15.8789 17.6743 15.8789C18.2505 15.578 18.7947 15.6804 19.1724 16.1222C19.1724 16.1222 19.9471 17.0505 20.2801 17.5051C20.5938 17.934 21.0163 18.6127 21.2276 18.9904C21.6053 19.6691 21.3685 20.3669 20.9971 20.655L20.248 21.2504C19.8703 21.5578 19.9215 22.1276 19.9215 22.1276C19.9215 22.1276 21.0291 26.3403 25.1906 27.3967Z" fill="white"/>
</svg>
